<?xml version="1.0" encoding="UTF-8"?><!DOCTYPE svg PUBLIC "-//W3C//DTD SVG 1.1//EN" "http://www.w3.org/Graphics/SVG/1.1/DTD/svg11.dtd"><svg xmlns="http://www.w3.org/2000/svg" xmlns:xlink="http://www.w3.org/1999/xlink"><defs/><symbol id="admin-fill" viewBox="0 0 30 30">
<style type="text/css">
	.st0{fill-rule:evenodd;clip-rule:evenodd;}
</style>
<path class="st0" d="M15,5C9.5,5,5,9.5,5,15s4.5,10,10,10s10-4.5,10-10S20.5,5,15,5z M15,22c-3.9,0-7-3.1-7-7s3.1-7,7-7s7,3.1,7,7
	S18.9,22,15,22z"/>
</symbol><symbol id="admin" viewBox="0 0 30 30">
<style type="text/css">
	.st0{fill-rule:evenodd;clip-rule:evenodd;}
</style>
<path class="st0" d="M15,5C9.5,5,5,9.5,5,15s4.5,10,10,10s10-4.5,10-10S20.5,5,15,5z M15,24c-5,0-9-4-9-9s4-9,9-9s9,4,9,9
	S20,24,15,24z"/>
</symbol><symbol id="benefits-fill" viewBox="0 0 30 30">
<style type="text/css">
	.st0{fill-rule:evenodd;clip-rule:evenodd;}
</style>
<path class="st0" d="M26.4,9.3c-0.4-0.5-1.1-0.8-1.9-0.8h-5V7c0-1.4-1.1-2.5-2.5-2.5h-4c-1.4,0-2.5,1.1-2.5,2.5v1.5h-5
	C4.6,8.5,4,8.8,3.6,9.3C3.1,9.8,3,10.4,3,11v2c0,0.8,0.4,1.4,1,1.9c0,0,0,0.1,0,0.1v8.5c0,0.7,0.3,1.3,0.8,1.7
	C5.2,25.7,5.8,26,6.5,26h9h0h8c0.7,0,1.3-0.3,1.7-0.8c0.4-0.4,0.8-1.1,0.8-1.7V15c0,0,0-0.1,0-0.1c0.6-0.4,1-1.1,1-1.9v-2
	C27,10.4,26.9,9.8,26.4,9.3z M17.1,20.4c-0.4,0.4-0.9,0.6-1.5,0.7v0.6c0,0.2,0,0.3-0.1,0.4c-0.1,0.1-0.2,0.2-0.4,0.2
	c-0.2,0-0.3,0-0.4-0.2c-0.1-0.1-0.1-0.2-0.1-0.4v-0.6c-0.4,0-0.8-0.1-1.1-0.2c-0.4-0.1-0.7-0.3-0.9-0.5c-0.1-0.1-0.1-0.1-0.2-0.2
	c0-0.1,0-0.2,0-0.3c0-0.1,0-0.3,0.1-0.4c0.1-0.1,0.2-0.2,0.3-0.2c0.1,0,0.1,0,0.2,0c0.1,0,0.1,0.1,0.2,0.1c0.3,0.2,0.6,0.3,0.9,0.4
	c0.3,0.1,0.6,0.1,0.9,0.1c0.4,0,0.8-0.1,1-0.3c0.2-0.2,0.4-0.4,0.4-0.8c0-0.2-0.1-0.3-0.2-0.5s-0.3-0.2-0.5-0.3
	c-0.2-0.1-0.5-0.2-0.8-0.2c-0.5-0.1-0.9-0.3-1.2-0.4c-0.3-0.1-0.6-0.3-0.8-0.6c-0.2-0.3-0.3-0.6-0.3-1.1c0-0.5,0.2-1,0.6-1.4
	c0.4-0.4,0.9-0.6,1.5-0.7v-0.6c0-0.2,0-0.3,0.1-0.4c0.1-0.1,0.2-0.2,0.4-0.2c0.2,0,0.3,0,0.4,0.2c0.1,0.1,0.1,0.2,0.1,0.4v0.6
	c0.7,0.1,1.3,0.3,1.7,0.7c0.2,0.1,0.2,0.3,0.2,0.5c0,0.1,0,0.3-0.1,0.4c-0.1,0.1-0.2,0.2-0.3,0.2c-0.1,0-0.1,0-0.2,0
	c-0.1,0-0.1-0.1-0.2-0.1c-0.3-0.2-0.5-0.3-0.8-0.4c-0.2-0.1-0.5-0.1-0.9-0.1c-0.4,0-0.7,0.1-1,0.3c-0.2,0.2-0.4,0.4-0.4,0.8
	c0,0.2,0.1,0.4,0.2,0.5c0.1,0.1,0.3,0.2,0.5,0.3s0.5,0.2,0.9,0.2c0.5,0.1,0.9,0.2,1.2,0.4s0.6,0.3,0.8,0.6c0.2,0.3,0.3,0.6,0.3,1
	C17.7,19.5,17.5,20,17.1,20.4z M18.5,8.5h-4h0h-3V7c0-0.8,0.7-1.5,1.5-1.5h4c0.8,0,1.5,0.7,1.5,1.5V8.5z"/>
</symbol><symbol id="benefits" viewBox="0 0 30 30">
<style type="text/css">
	.st0{fill-rule:evenodd;clip-rule:evenodd;}
</style>
<path d="M17.7,19c0,0.5-0.2,1-0.6,1.4c-0.4,0.4-0.9,0.6-1.5,0.7v0.6c0,0.2,0,0.3-0.1,0.4c-0.1,0.1-0.2,0.2-0.4,0.2
	c-0.2,0-0.3-0.1-0.4-0.2c-0.1-0.1-0.1-0.2-0.1-0.4v-0.6c-0.4,0-0.8-0.1-1.1-0.2c-0.4-0.1-0.7-0.3-0.9-0.5c-0.1-0.1-0.1-0.1-0.2-0.2
	c0-0.1-0.1-0.2-0.1-0.3c0-0.1,0-0.3,0.1-0.4c0.1-0.1,0.2-0.2,0.3-0.2c0.1,0,0.1,0,0.2,0c0.1,0,0.1,0.1,0.2,0.1
	c0.3,0.2,0.6,0.3,0.9,0.4c0.3,0.1,0.6,0.1,0.9,0.1c0.4,0,0.8-0.1,1-0.3c0.2-0.2,0.4-0.4,0.4-0.8c0-0.2-0.1-0.3-0.2-0.5
	c-0.1-0.1-0.3-0.2-0.5-0.3c-0.2-0.1-0.5-0.2-0.8-0.2c-0.5-0.1-0.9-0.3-1.2-0.4c-0.3-0.1-0.6-0.3-0.8-0.6c-0.2-0.3-0.3-0.6-0.3-1.1
	c0-0.5,0.2-1,0.6-1.4c0.4-0.4,0.9-0.6,1.5-0.7v-0.6c0-0.2,0-0.3,0.1-0.4c0.1-0.1,0.2-0.1,0.4-0.1s0.3,0.1,0.4,0.1
	c0.1,0.1,0.1,0.2,0.1,0.4v0.6c0.7,0.1,1.3,0.3,1.7,0.7c0.2,0.1,0.2,0.3,0.2,0.5c0,0.1,0,0.3-0.1,0.4c-0.1,0.1-0.2,0.2-0.3,0.2
	c-0.1,0-0.1,0-0.2,0c-0.1,0-0.1-0.1-0.2-0.1c-0.3-0.2-0.5-0.3-0.8-0.4c-0.2-0.1-0.5-0.1-0.9-0.1c-0.4,0-0.7,0.1-1,0.3
	c-0.2,0.2-0.4,0.4-0.4,0.8c0,0.2,0.1,0.4,0.2,0.5c0.1,0.1,0.3,0.2,0.5,0.3c0.2,0.1,0.5,0.2,0.9,0.2c0.5,0.1,0.9,0.2,1.2,0.4
	c0.3,0.1,0.6,0.3,0.8,0.6C17.5,18.2,17.7,18.6,17.7,19z"/>
<path class="st0" d="M26.4,9.3c-0.4-0.5-1.1-0.8-1.9-0.8h-5V7c0-1.4-1.1-2.5-2.5-2.5h-4c-1.4,0-2.5,1.1-2.5,2.5v1.5h-5
	C4.6,8.5,4,8.8,3.6,9.3C3.1,9.8,3,10.4,3,11v2c0,0.8,0.4,1.4,1,1.9c0,0,0,0.1,0,0.1v8.5c0,0.7,0.3,1.3,0.8,1.7
	C5.2,25.7,5.8,26,6.5,26h9h0h8c0.7,0,1.3-0.3,1.7-0.8c0.4-0.4,0.8-1.1,0.8-1.7V15c0,0,0-0.1,0-0.1c0.6-0.4,1-1.1,1-1.9v-2
	C27,10.4,26.9,9.8,26.4,9.3z M11.5,7c0-0.8,0.7-1.5,1.5-1.5h4c0.8,0,1.5,0.7,1.5,1.5v1.5h-4h0h-3V7z M26,13c0,0.7-0.5,1.2-1.6,1.6
	c-1.1,0.4-2.7,0.7-4.5,0.9c-0.3,0-0.5,0.3-0.4,0.6c0,0.3,0.3,0.5,0.6,0.4c1.7-0.2,3.4-0.5,4.7-1c0.1,0,0.2-0.1,0.3-0.1v8.1
	c0,0.3-0.2,0.7-0.5,1c-0.3,0.3-0.7,0.5-1,0.5h-9h0h-8c-0.3,0-0.7-0.2-1-0.5c-0.3-0.3-0.5-0.7-0.5-1v-8.1c0.1,0,0.2,0.1,0.3,0.1
	c1.2,0.5,2.9,0.7,4.7,1c0.3,0,0.5-0.2,0.6-0.4c0-0.3-0.2-0.5-0.4-0.6c-1.8-0.3-3.3-0.5-4.5-0.9C4.5,14.2,4,13.7,4,13v-2
	c0-0.4,0.1-0.8,0.3-1.1c0.2-0.2,0.5-0.4,1.2-0.4h19c0.6,0,1,0.2,1.2,0.4c0.2,0.3,0.3,0.6,0.3,1.1V13z"/>
</symbol><symbol id="discounts-fill" viewBox="0 0 30 30">
<style type="text/css">
	.st0{fill-rule:evenodd;clip-rule:evenodd;}
</style>
<g>
	<path class="st0" d="M17.4,16.3c-0.5,0-1,0.4-1,1c0,0.5,0.4,1,1,1c0.5,0,1-0.4,1-1C18.3,16.7,17.9,16.3,17.4,16.3z"/>
	<path class="st0" d="M26.9,16.8l-1.7-4c0-0.1,0-0.1,0-0.2l-0.2-4.4c0-0.7-0.5-1.2-1.1-1.4l-4.2-1.1c-0.1,0-0.1,0-0.2-0.1L15.9,3
		c-0.5-0.4-1.2-0.4-1.8,0l-3.5,2.6c0,0-0.1,0.1-0.2,0.1L6.2,6.8C5.6,7,5.1,7.6,5.1,8.2l-0.2,4.4c0,0.1,0,0.1,0,0.2l-1.7,4
		c-0.3,0.6-0.1,1.3,0.4,1.7l3.3,2.9c0,0,0.1,0.1,0.1,0.1L9,25.4c0.3,0.6,1,0.9,1.6,0.8l4.3-0.8c0.1,0,0.1,0,0.2,0l4.3,0.8
		c0.6,0.1,1.3-0.2,1.6-0.8l2.1-3.9c0-0.1,0.1-0.1,0.1-0.1l3.3-2.9C27,18.1,27.1,17.4,26.9,16.8z M12.7,10.9c1,0,1.8,0.8,1.8,1.8
		c0,1-0.8,1.8-1.8,1.8c-1,0-1.8-0.8-1.8-1.8C10.9,11.7,11.7,10.9,12.7,10.9z M12.1,18.7c-0.1,0.1-0.2,0.1-0.3,0.1
		c-0.1,0-0.2,0-0.3-0.1c-0.2-0.2-0.2-0.4,0-0.6l6.6-6.8c0.2-0.2,0.4-0.2,0.6,0c0.2,0.2,0.2,0.4,0,0.6L12.1,18.7z M17.4,19.1
		c-1,0-1.8-0.8-1.8-1.8c0-1,0.8-1.8,1.8-1.8c1,0,1.8,0.8,1.8,1.8C19.2,18.3,18.4,19.1,17.4,19.1z"/>
	<path class="st0" d="M12.7,13.7c0.5,0,1-0.4,1-1c0-0.5-0.4-1-1-1c-0.5,0-1,0.4-1,1C11.8,13.3,12.2,13.7,12.7,13.7z"/>
</g>
</symbol><symbol id="discounts" viewBox="0 0 30 30">
<style type="text/css">
	.st0{fill-rule:evenodd;clip-rule:evenodd;}
</style>
<path class="st0" d="M26.9,16.8l-1.7-4c0-0.1,0-0.1,0-0.2l-0.2-4.4c0-0.7-0.5-1.2-1.1-1.4l-4.2-1.1c-0.1,0-0.1,0-0.2-0.1L15.9,3
	c-0.5-0.4-1.2-0.4-1.8,0l-3.5,2.6c0,0-0.1,0.1-0.2,0.1L6.2,6.8C5.6,7,5.1,7.6,5.1,8.2l-0.2,4.4c0,0.1,0,0.1,0,0.2l-1.7,4
	c-0.3,0.6-0.1,1.3,0.4,1.7l3.3,2.9c0,0,0.1,0.1,0.1,0.1L9,25.4c0.3,0.6,1,0.9,1.6,0.8l4.3-0.8c0.1,0,0.1,0,0.2,0l4.3,0.8
	c0.6,0.1,1.3-0.2,1.6-0.8l2.1-3.9c0-0.1,0.1-0.1,0.1-0.1l3.3-2.9C27,18.1,27.1,17.4,26.9,16.8z M25.8,17.8l-3.3,2.9
	c-0.1,0.1-0.3,0.3-0.3,0.4l-2.1,3.9c-0.1,0.2-0.3,0.3-0.5,0.3l-4.3-0.8c-0.2,0-0.4,0-0.6,0l-4.3,0.8c-0.2,0-0.4-0.1-0.5-0.3
	l-2.1-3.9c-0.1-0.2-0.2-0.3-0.3-0.4l-3.3-2.9C4,17.6,4,17.4,4.1,17.2l1.7-4c0.1-0.2,0.1-0.4,0.1-0.5l0.2-4.4c0-0.2,0.2-0.4,0.4-0.5
	l4.2-1.1c0.2,0,0.3-0.1,0.5-0.2l3.5-2.6c0.2-0.1,0.4-0.1,0.6,0l3.5,2.6c0.1,0.1,0.3,0.2,0.5,0.2l4.2,1.1c0.2,0.1,0.4,0.2,0.4,0.5
	l0.2,4.4c0,0.2,0,0.4,0.1,0.5l1.7,4C26,17.4,26,17.6,25.8,17.8z"/>
<path d="M11.5,18.1c-0.2,0.2-0.2,0.5,0,0.6c0.1,0.1,0.2,0.1,0.3,0.1c0.1,0,0.2,0,0.3-0.1l6.6-6.8c0.2-0.2,0.2-0.5,0-0.6
	c-0.2-0.2-0.5-0.2-0.6,0L11.5,18.1z"/>
<path class="st0" d="M12.7,10.9c-1,0-1.8,0.8-1.8,1.8c0,1,0.8,1.8,1.8,1.8c1,0,1.8-0.8,1.8-1.8C14.6,11.7,13.7,10.9,12.7,10.9z
	 M12.7,13.7c-0.5,0-1-0.4-1-1c0-0.5,0.4-1,1-1c0.5,0,1,0.4,1,1C13.7,13.3,13.3,13.7,12.7,13.7z"/>
<path class="st0" d="M17.4,15.4c-1,0-1.8,0.8-1.8,1.8c0,1,0.8,1.8,1.8,1.8c1,0,1.8-0.8,1.8-1.8C19.2,16.3,18.4,15.4,17.4,15.4z
	 M17.4,18.2c-0.5,0-1-0.4-1-1c0-0.5,0.4-1,1-1c0.5,0,1,0.4,1,1C18.3,17.8,17.9,18.2,17.4,18.2z"/>
</symbol><symbol id="home-fill" viewBox="0 0 30 30">
<style type="text/css">
	.st0{fill-rule:evenodd;clip-rule:evenodd;}
</style>
<path class="st0" d="M25.4,12.2c-0.1-0.2-0.2-0.4-0.3-0.5c-0.2-0.2-0.4-0.3-0.6-0.4L16.7,7c-0.5-0.3-0.8-0.5-1.2-0.5
	c-0.3-0.1-0.7-0.1-1,0c-0.4,0.1-0.7,0.3-1.2,0.5l-7.7,4.3c-0.2,0.1-0.5,0.3-0.6,0.4c-0.1,0.2-0.3,0.3-0.3,0.5
	c-0.1,0.2-0.1,0.5-0.1,0.8l0,9.3c0,0.5,0,1,0,1.3c0,0.4,0.1,0.7,0.2,1c0.2,0.5,0.6,0.9,1.1,1.1c0.3,0.2,0.6,0.2,1,0.2
	c0.4,0,0.8,0,1.3,0h13.6c0.5,0,1,0,1.3,0c0.4,0,0.7-0.1,1-0.2c0.5-0.2,0.9-0.6,1.1-1.1c0.2-0.3,0.2-0.6,0.2-1c0-0.4,0-0.8,0-1.3V13
	C25.5,12.7,25.5,12.4,25.4,12.2z M17.5,25h-5v-7.5c0-0.3,0.2-0.5,0.5-0.5h4c0.3,0,0.5,0.2,0.5,0.5V25z"/>
<path class="st0" d="M14.3,4.1c0.4-0.1,0.9-0.1,1.4,0c0.5,0.1,1,0.4,1.7,0.8c0,0,0,0,0.1,0l9.7,5.2c0.2,0.1,0.3,0.4,0.2,0.7
	c-0.1,0.2-0.4,0.3-0.7,0.2L17,5.7c-0.9-0.5-1.2-0.6-1.5-0.7c-0.3-0.1-0.7-0.1-1,0c-0.3,0.1-0.7,0.2-1.5,0.7l-9.7,5.2
	c-0.2,0.1-0.5,0-0.7-0.2c-0.1-0.2,0-0.5,0.2-0.7l9.7-5.2c0,0,0,0,0.1,0C13.3,4.4,13.8,4.2,14.3,4.1z"/>
</symbol><symbol id="home" viewBox="0 0 30 30">
<style type="text/css">
	.st0{fill-rule:evenodd;clip-rule:evenodd;}
</style>
<path class="st0" d="M25.4,12.2c-0.1-0.2-0.2-0.4-0.3-0.5c-0.2-0.2-0.4-0.3-0.6-0.4L16.7,7c-0.5-0.3-0.8-0.5-1.2-0.5
	c-0.3-0.1-0.7-0.1-1,0c-0.4,0.1-0.7,0.3-1.2,0.5l-7.7,4.3c-0.2,0.1-0.5,0.3-0.6,0.4c-0.1,0.2-0.3,0.3-0.3,0.5
	c-0.1,0.2-0.1,0.5-0.1,0.8l0,9.3c0,0.5,0,1,0,1.3c0,0.4,0.1,0.7,0.2,1c0.2,0.5,0.6,0.9,1.1,1.1c0.3,0.2,0.6,0.2,1,0.2
	c0.4,0,0.8,0,1.3,0h13.6c0.5,0,1,0,1.3,0c0.4,0,0.7-0.1,1-0.2c0.5-0.2,0.9-0.6,1.1-1.1c0.2-0.3,0.2-0.6,0.2-1c0-0.4,0-0.8,0-1.3V13
	C25.5,12.7,25.5,12.4,25.4,12.2z M17.5,25h-5v-7.5c0-0.3,0.2-0.5,0.5-0.5h4c0.3,0,0.5,0.2,0.5,0.5V25z M24.5,22.3c0,0.6,0,1,0,1.3
	c0,0.3-0.1,0.5-0.1,0.6c-0.1,0.3-0.4,0.5-0.7,0.7c-0.1,0.1-0.3,0.1-0.6,0.1c-0.3,0-0.7,0-1.3,0h-3.3v-7.5c0-0.8-0.7-1.5-1.5-1.5h-4
	c-0.8,0-1.5,0.7-1.5,1.5V25H8.2c-0.6,0-1,0-1.3,0c-0.3,0-0.5-0.1-0.6-0.1c-0.3-0.1-0.5-0.4-0.7-0.7c-0.1-0.1-0.1-0.3-0.1-0.6
	c0-0.3,0-0.7,0-1.3V13c0-0.4,0-0.5,0-0.5c0-0.1,0.1-0.1,0.1-0.2c0,0,0.1-0.1,0.4-0.3l7.6-4.2c0.6-0.3,0.8-0.4,1-0.5
	c0.2,0,0.4,0,0.6,0c0.2,0,0.4,0.1,1,0.5l7.6,4.2c0.3,0.2,0.4,0.2,0.4,0.3c0,0.1,0.1,0.1,0.1,0.2c0,0.1,0,0.1,0,0.5V22.3z"/>
<path class="st0" d="M14.3,4.1c0.4-0.1,0.9-0.1,1.4,0c0.5,0.1,1,0.4,1.7,0.8c0,0,0,0,0.1,0l9.7,5.2c0.2,0.1,0.3,0.4,0.2,0.7
	c-0.1,0.2-0.4,0.3-0.7,0.2L17,5.7c-0.9-0.5-1.2-0.6-1.5-0.7c-0.3-0.1-0.7-0.1-1,0c-0.3,0.1-0.7,0.2-1.5,0.7l-9.7,5.2
	c-0.2,0.1-0.5,0-0.7-0.2c-0.1-0.2,0-0.5,0.2-0.7l9.7-5.2c0,0,0,0,0.1,0C13.3,4.4,13.8,4.2,14.3,4.1z"/>
</symbol><symbol id="lifeplan-fill" viewBox="0 0 30 30">
<style type="text/css">
	.st0{fill-rule:evenodd;clip-rule:evenodd;}
</style>
<path class="st0" d="M24,3H6C4.3,3,3,4.3,3,6v18c0,1.7,1.3,3,3,3h18c1.7,0,3-1.3,3-3V6C27,4.3,25.7,3,24,3z M8,24H7v-5.1h1V24z
	 M13,24h-1V13h1V24z M18,24h-1v-8h1V24z M23,24h-1V13h1V24z M23.8,6.9l-6.5,5c-0.2,0.2-0.5,0.2-0.7,0L13,8.1l-6.2,3.7
	c-0.2,0.2-0.5,0.1-0.7-0.1c-0.2-0.2-0.1-0.5,0.1-0.7l6.5-4c0.2-0.2,0.5-0.1,0.7,0l3.7,3.7l6.2-4.7c0.2-0.2,0.5-0.2,0.7,0
	C24,6.4,24,6.7,23.8,6.9z"/>
</symbol><symbol id="lifeplan" viewBox="0 0 30 30">
<path d="M12 13V24H13V13H12Z" fill="black"/>
<path d="M7 18.8654V24H8V18.8654H7Z" fill="black"/>
<path d="M17 24V16H18V24H17Z" fill="black"/>
<path d="M22 13V24H23V13H22Z" fill="black"/>
<path d="M23.861 6.16819C24.0485 6.35569 24.0485 6.66819 23.8298 6.85569L17.3298 11.8557C17.1423 12.0432 16.8298 12.0432 16.6423 11.8557L12.9548 8.13694L6.79852 11.8869C6.57977 12.0744 6.26727 12.0119 6.11102 11.7932C5.92352 11.5744 5.98602 11.2619 6.20477 11.1057L12.7048 7.10569C12.8923 6.94944 13.1735 6.98069 13.361 7.13694L17.0173 10.7932L23.1735 6.13694C23.361 5.94944 23.6735 5.94944 23.861 6.16819Z" fill="black"/>
</symbol><symbol id="recognition-fill" viewBox="0 0 18 26">
<style type="text/css">
	.st0{fill-rule:evenodd;clip-rule:evenodd;}
</style>
<path class="st0" d="M3,17.3v7.5c0,0.8,1,1.3,1.6,0.8l3.7-3.1c0.4-0.3,0.9-0.3,1.3,0l3.7,3.1c0.7,0.5,1.6,0.1,1.6-0.8v-7.5l-4.6,2.5
	c-0.9,0.5-2,0.5-2.9,0L3,17.3z"/>
<path d="M8,0.2c0.6-0.3,1.3-0.3,1.9,0l7,3.9c0.6,0.3,1,1,1,1.7v7.5c0,0.7-0.4,1.4-1,1.7L10,19c-0.6,0.3-1.3,0.3-1.9,0l-7-3.9
	c-0.6-0.3-1-1-1-1.7V5.8c0-0.7,0.4-1.4,1-1.7L8,0.2z"/>
</symbol><symbol id="recognition" viewBox="0 0 30 30">
<style type="text/css">
	.st0{fill-rule:evenodd;clip-rule:evenodd;}
</style>
<path d="M9,18.2v8.6c0,0.8,1,1.3,1.6,0.8l3.7-3.1c0.4-0.3,0.9-0.3,1.3,0l3.7,3.1c0.7,0.5,1.6,0.1,1.6-0.8v-8.6l-1,0.5v8.1l-3.7-3.1
	c-0.7-0.6-1.8-0.6-2.6,0L10,26.8v-8.1L9,18.2z"/>
<path class="st0" d="M23,6.1l-7-3.9c-0.6-0.3-1.3-0.3-1.9,0L7,6.1c-0.6,0.3-1,1-1,1.7v7.5c0,0.7,0.4,1.4,1,1.7l7,3.9
	c0.6,0.3,1.3,0.3,1.9,0l7-3.9c0.6-0.3,1-1,1-1.7V7.8C24,7.1,23.6,6.4,23,6.1z M23,15.4c0,0.4-0.2,0.7-0.5,0.9l-7,3.9
	c-0.3,0.2-0.7,0.2-0.9,0l-7-3.9C7.2,16.1,7,15.7,7,15.4V7.8C7,7.5,7.2,7.1,7.5,7l7-3.9c0.3-0.2,0.7-0.2,0.9,0l7,3.9
	C22.8,7.1,23,7.5,23,7.8V15.4z"/>
</symbol><symbol id="reward-fill" viewBox="0 0 30 30">
<style type="text/css">
	.st0{fill-rule:evenodd;clip-rule:evenodd;}
</style>
<path class="st0" d="M24,9h-2.8C21.7,8.5,22,7.8,22,7c0-1.6-1.3-3-2.9-3H19c-1.1,0-2.1,0.6-2.6,1.5L15,7.9l-1.4-2.4
	C13,4.6,12.1,4,11,4h-0.1C9.2,4,8,5.4,8,7c0,0.8,0.3,1.5,0.7,2H6c-1.1,0-2,0.9-2,2v2c0,1.1,0.9,2,2,2h8.5v-5h1v5H24c1.1,0,2-0.9,2-2
	v-2C26,9.9,25.1,9,24,9z M10.9,9C9.9,9,9,8.1,9,7c0-1.1,0.9-2,1.9-2H11c0.7,0,1.4,0.4,1.7,1l1.8,3H10.9z M19.1,9h-3.6l1.8-3
	c0.3-0.6,1-1,1.7-1h0.1c1,0,1.9,0.9,1.9,2C21,8.1,20.1,9,19.1,9z"/>
<path d="M5,16h9.5v10H8c-1.7,0-3-1.3-3-3V16z"/>
<path d="M15.5,16v10H22c1.7,0,3-1.3,3-3v-7H15.5z"/>
</symbol><symbol id="reward" viewBox="0 0 30 30">
<style type="text/css">
	.st0{fill-rule:evenodd;clip-rule:evenodd;}
</style>
<path class="st0" d="M24,9h-2.8C21.7,8.5,22,7.8,22,7c0-1.6-1.3-3-2.9-3H19c-1.1,0-2.1,0.6-2.6,1.5L15,7.9l-1.4-2.4
	C13,4.6,12.1,4,11,4h-0.1C9.2,4,8,5.4,8,7c0,0.8,0.3,1.5,0.7,2H6c-1.1,0-2,0.9-2,2v2c0,0.7,0.4,1.4,1,1.7V23c0,1.7,1.3,3,3,3h14
	c1.7,0,3-1.3,3-3v-8.3c0.6-0.3,1-1,1-1.7v-2C26,9.9,25.1,9,24,9z M10.9,5L10.9,5c0.8,0,1.4,0.4,1.8,1l1.8,3h-3.6C9.9,9,9,8.1,9,7
	C9,5.9,9.9,5,10.9,5z M14.5,25H8c-1.1,0-2-0.9-2-2v-8h8.5V25z M14.5,14H6c-0.6,0-1-0.4-1-1v-2c0-0.6,0.4-1,1-1h8.5V14z M17.3,6
	c0.3-0.6,1-1,1.7-1h0.1c1,0,1.9,0.9,1.9,2c0,1.1-0.9,2-1.9,2h-3.6L17.3,6z M24,23c0,1.1-0.9,2-2,2h-6.5V15H24V23z M25,13
	c0,0.6-0.4,1-1,1h-8.5v-4H24c0.6,0,1,0.4,1,1V13z"/>
</symbol><symbol id="three-dots-fill" viewBox="0 0 50 50">
    <path d="M25,2C12.318,2,2,12.318,2,25c0,12.683,10.318,23,23,23c12.683,0,23-10.317,23-23C48,12.318,37.683,2,25,2z M13,28 c-1.657,0-3-1.343-3-3s1.343-3,3-3s3,1.343,3,3S14.657,28,13,28z M25,28c-1.657,0-3-1.343-3-3s1.343-3,3-3s3,1.343,3,3 S26.657,28,25,28z M37,28c-1.657,0-3-1.343-3-3s1.343-3,3-3s3,1.343,3,3S38.657,28,37,28z"/>
</symbol><symbol id="three-dots" viewBox="0 0 50 50">
    <path style="text-indent:0;text-align:start;line-height:normal;text-transform:none;block-progression:tb;-inkscape-font-specification:Sans" d="M 25 2 C 12.309296 2 2 12.309296 2 25 C 2 37.690704 12.309296 48 25 48 C 37.690704 48 48 37.690704 48 25 C 48 12.309296 37.690704 2 25 2 z M 25 4 C 36.609824 4 46 13.390176 46 25 C 46 36.609824 36.609824 46 25 46 C 13.390176 46 4 36.609824 4 25 C 4 13.390176 13.390176 4 25 4 z M 13 21 C 10.802706 21 9 22.802706 9 25 C 9 27.197294 10.802706 29 13 29 C 15.197294 29 17 27.197294 17 25 C 17 22.802706 15.197294 21 13 21 z M 25 21 C 22.802706 21 21 22.802706 21 25 C 21 27.197294 22.802706 29 25 29 C 27.197294 29 29 27.197294 29 25 C 29 22.802706 27.197294 21 25 21 z M 37 21 C 34.802706 21 33 22.802706 33 25 C 33 27.197294 34.802706 29 37 29 C 39.197294 29 41 27.197294 41 25 C 41 22.802706 39.197294 21 37 21 z M 13 23 C 14.116414 23 15 23.883586 15 25 C 15 26.116414 14.116414 27 13 27 C 11.883586 27 11 26.116414 11 25 C 11 23.883586 11.883586 23 13 23 z M 25 23 C 26.116414 23 27 23.883586 27 25 C 27 26.116414 26.116414 27 25 27 C 23.883586 27 23 26.116414 23 25 C 23 23.883586 23.883586 23 25 23 z M 37 23 C 38.116414 23 39 23.883586 39 25 C 39 26.116414 38.116414 27 37 27 C 35.883586 27 35 26.116414 35 25 C 35 23.883586 35.883586 23 37 23 z" overflow="visible" font-family="Sans"/>
</symbol><symbol id="trs-fill" viewBox="0 0 30 30">
<path d="M14.5 5.01228C9.20944 5.2728 5 9.64482 5 15C5 20.5228 9.47715 25 15 25C17.5799 25 19.9317 24.023 21.7054 22.4188L14.5 15.2134V5.01228Z" fill="black"/>
<path d="M22.4128 21.712C24.0206 19.9375 25 17.5831 25 15C25 13.8302 24.7992 12.7074 24.4301 11.664L15.8839 15.1831L22.4128 21.712Z" fill="black"/>
<path d="M24.0495 10.7393C22.5168 7.48953 19.2851 5.19867 15.5 5.01228V14.2597L24.0495 10.7393Z" fill="black"/>
</symbol><symbol id="trs" viewBox="0 0 30 30">
<style type="text/css">
	.st0{fill-rule:evenodd;clip-rule:evenodd;}
</style>
<path class="st0" d="M15,5C9.5,5,5,9.5,5,15s4.5,10,10,10s10-4.5,10-10S20.5,5,15,5z M15.5,6c3.4,0.2,6.2,2.2,7.6,5.1l-7.6,3.1V6z
	 M15,24c-5,0-9-4-9-9c0-4.8,3.8-8.7,8.5-9v9.2l6.5,6.5C19.4,23.1,17.3,24,15,24z M21.7,21l-5.8-5.8l7.6-3.1C23.8,13,24,14,24,15
	C24,17.3,23.1,19.4,21.7,21z"/>
</symbol><symbol id="wallet-fill" viewBox="0 0 30 30">
<path fill-rule="evenodd" clip-rule="evenodd" d="M3 8C3 6.34315 4.34315 5 6 5H24C25.6569 5 27 6.34315 27 8V11H22C19.7909 11 18 12.7909 18 15C18 17.2091 19.7909 19 22 19H27V22C27 23.6569 25.6569 25 24 25H6C4.34315 25 3 23.6569 3 22V8ZM27 18V12H22C20.3431 12 19 13.3431 19 15C19 16.6569 20.3431 18 22 18H27ZM23 15C23 15.5523 22.5523 16 22 16C21.4477 16 21 15.5523 21 15C21 14.4477 21.4477 14 22 14C22.5523 14 23 14.4477 23 15Z" fill="black"/>
</symbol><symbol id="wallet" viewBox="0 0 30 30">
<path fill-rule="evenodd" clip-rule="evenodd" d="M24 24C25.1046 24 26 23.1046 26 22V19H22C19.7909 19 18 17.2091 18 15C18 12.7909 19.7909 11 22 11H26V8C26 6.89543 25.1046 6 24 6H6C4.89543 6 4 6.89543 4 8V22C4 23.1046 4.89543 24 6 24H24ZM3 8C3 6.34315 4.34315 5 6 5H24C25.6569 5 27 6.34315 27 8V22C27 23.6569 25.6569 25 24 25H6C4.34315 25 3 23.6569 3 22V8ZM19 15C19 16.6569 20.3431 18 22 18H26V12H22C20.3431 12 19 13.3431 19 15ZM23 15C23 15.5523 22.5523 16 22 16C21.4477 16 21 15.5523 21 15C21 14.4477 21.4477 14 22 14C22.5523 14 23 14.4477 23 15Z" fill="black"/>
</symbol><symbol id="wellbeing-fill" viewBox="0 0 30 30">
<path fill-rule="evenodd" clip-rule="evenodd" d="M14.9572 23.4999C8.42361 23.478 3.07102 18.4439 2.54277 12.0412C2.53126 11.9016 2.57881 11.7636 2.67385 11.6607C2.76889 11.5579 2.90271 11.4996 3.04276 11.5001C8.70865 11.5191 13.4864 15.3073 15 20.4887C16.5136 15.3073 21.2914 11.5191 26.9572 11.5001C27.0973 11.4996 27.2311 11.5579 27.3262 11.6607C27.4212 11.7636 27.4687 11.9016 27.4572 12.0412C26.929 18.4439 21.5764 23.478 15.0428 23.4999C15.0284 23.5 15.0142 23.4994 15 23.4982C14.9858 23.4994 14.9716 23.5 14.9572 23.4999Z" fill="black"/>
<path d="M15.2701 5.9218C15.1089 5.82195 14.905 5.82195 14.7437 5.9218C12.2551 7.46263 10.4582 9.74463 9.89368 12.3903C12.0619 13.6806 13.8377 15.5611 15 17.81C16.1645 15.5569 17.9448 13.6735 20.1186 12.383C19.5523 9.74042 17.7565 7.46121 15.2701 5.9218Z" fill="black"/>
</symbol><symbol id="wellbeing" viewBox="0 0 30 30">
<style type="text/css">
	.st0{fill-rule:evenodd;clip-rule:evenodd;}
</style>
<path class="st0" d="M27.3,11.7c-0.1-0.1-0.2-0.2-0.4-0.2c-2.5,0-4.7,0.7-6.7,2c-0.3-3.1-2.2-5.8-5-7.5c-0.2-0.1-0.4-0.1-0.5,0
	c-2.8,1.7-4.8,4.4-5,7.5c-1.9-1.2-4.2-2-6.7-2c-0.1,0-0.3,0.1-0.4,0.2c-0.1,0.1-0.1,0.2-0.1,0.4C3.1,18.4,8.4,23.5,15,23.5
	c0,0,0,0,0,0c0,0,0,0,0,0c6.5,0,11.9-5.1,12.4-11.5C27.5,11.9,27.4,11.8,27.3,11.7z M3.6,12.5c5.6,0.3,10.1,4.5,10.8,10
	C8.8,22.2,4.3,18,3.6,12.5z M15,20.5c-0.7-2.5-2.3-4.7-4.3-6.3c0-2.9,1.7-5.5,4.3-7.2c2.6,1.7,4.3,4.3,4.3,7.2
	C17.3,15.7,15.7,17.9,15,20.5z M15.6,22.5c0.7-5.4,5.2-9.7,10.8-10C25.7,18,21.2,22.2,15.6,22.5z"/>
</symbol></svg>