<?xml version="1.0" encoding="utf-8"?>
<!-- Generator: Adobe Illustrator 24.3.0, SVG Export Plug-In . SVG Version: 6.00 Build 0)  -->
<svg version="1.1" id="Layer_1" xmlns="http://www.w3.org/2000/svg" xmlns:xlink="http://www.w3.org/1999/xlink" x="0px" y="0px"
	 viewBox="0 0 30 30" style="enable-background:new 0 0 30 30;" xml:space="preserve">
<style type="text/css">
	.st0{fill-rule:evenodd;clip-rule:evenodd;}
</style>
<path d="M17.7,19c0,0.5-0.2,1-0.6,1.4c-0.4,0.4-0.9,0.6-1.5,0.7v0.6c0,0.2,0,0.3-0.1,0.4c-0.1,0.1-0.2,0.2-0.4,0.2
	c-0.2,0-0.3-0.1-0.4-0.2c-0.1-0.1-0.1-0.2-0.1-0.4v-0.6c-0.4,0-0.8-0.1-1.1-0.2c-0.4-0.1-0.7-0.3-0.9-0.5c-0.1-0.1-0.1-0.1-0.2-0.2
	c0-0.1-0.1-0.2-0.1-0.3c0-0.1,0-0.3,0.1-0.4c0.1-0.1,0.2-0.2,0.3-0.2c0.1,0,0.1,0,0.2,0c0.1,0,0.1,0.1,0.2,0.1
	c0.3,0.2,0.6,0.3,0.9,0.4c0.3,0.1,0.6,0.1,0.9,0.1c0.4,0,0.8-0.1,1-0.3c0.2-0.2,0.4-0.4,0.4-0.8c0-0.2-0.1-0.3-0.2-0.5
	c-0.1-0.1-0.3-0.2-0.5-0.3c-0.2-0.1-0.5-0.2-0.8-0.2c-0.5-0.1-0.9-0.3-1.2-0.4c-0.3-0.1-0.6-0.3-0.8-0.6c-0.2-0.3-0.3-0.6-0.3-1.1
	c0-0.5,0.2-1,0.6-1.4c0.4-0.4,0.9-0.6,1.5-0.7v-0.6c0-0.2,0-0.3,0.1-0.4c0.1-0.1,0.2-0.1,0.4-0.1s0.3,0.1,0.4,0.1
	c0.1,0.1,0.1,0.2,0.1,0.4v0.6c0.7,0.1,1.3,0.3,1.7,0.7c0.2,0.1,0.2,0.3,0.2,0.5c0,0.1,0,0.3-0.1,0.4c-0.1,0.1-0.2,0.2-0.3,0.2
	c-0.1,0-0.1,0-0.2,0c-0.1,0-0.1-0.1-0.2-0.1c-0.3-0.2-0.5-0.3-0.8-0.4c-0.2-0.1-0.5-0.1-0.9-0.1c-0.4,0-0.7,0.1-1,0.3
	c-0.2,0.2-0.4,0.4-0.4,0.8c0,0.2,0.1,0.4,0.2,0.5c0.1,0.1,0.3,0.2,0.5,0.3c0.2,0.1,0.5,0.2,0.9,0.2c0.5,0.1,0.9,0.2,1.2,0.4
	c0.3,0.1,0.6,0.3,0.8,0.6C17.5,18.2,17.7,18.6,17.7,19z"/>
<path class="st0" d="M26.4,9.3c-0.4-0.5-1.1-0.8-1.9-0.8h-5V7c0-1.4-1.1-2.5-2.5-2.5h-4c-1.4,0-2.5,1.1-2.5,2.5v1.5h-5
	C4.6,8.5,4,8.8,3.6,9.3C3.1,9.8,3,10.4,3,11v2c0,0.8,0.4,1.4,1,1.9c0,0,0,0.1,0,0.1v8.5c0,0.7,0.3,1.3,0.8,1.7
	C5.2,25.7,5.8,26,6.5,26h9h0h8c0.7,0,1.3-0.3,1.7-0.8c0.4-0.4,0.8-1.1,0.8-1.7V15c0,0,0-0.1,0-0.1c0.6-0.4,1-1.1,1-1.9v-2
	C27,10.4,26.9,9.8,26.4,9.3z M11.5,7c0-0.8,0.7-1.5,1.5-1.5h4c0.8,0,1.5,0.7,1.5,1.5v1.5h-4h0h-3V7z M26,13c0,0.7-0.5,1.2-1.6,1.6
	c-1.1,0.4-2.7,0.7-4.5,0.9c-0.3,0-0.5,0.3-0.4,0.6c0,0.3,0.3,0.5,0.6,0.4c1.7-0.2,3.4-0.5,4.7-1c0.1,0,0.2-0.1,0.3-0.1v8.1
	c0,0.3-0.2,0.7-0.5,1c-0.3,0.3-0.7,0.5-1,0.5h-9h0h-8c-0.3,0-0.7-0.2-1-0.5c-0.3-0.3-0.5-0.7-0.5-1v-8.1c0.1,0,0.2,0.1,0.3,0.1
	c1.2,0.5,2.9,0.7,4.7,1c0.3,0,0.5-0.2,0.6-0.4c0-0.3-0.2-0.5-0.4-0.6c-1.8-0.3-3.3-0.5-4.5-0.9C4.5,14.2,4,13.7,4,13v-2
	c0-0.4,0.1-0.8,0.3-1.1c0.2-0.2,0.5-0.4,1.2-0.4h19c0.6,0,1,0.2,1.2,0.4c0.2,0.3,0.3,0.6,0.3,1.1V13z"/>
</svg>
