<?xml version="1.0" encoding="utf-8"?>
<!-- Generator: Adobe Illustrator 24.3.0, SVG Export Plug-In . SVG Version: 6.00 Build 0)  -->
<svg version="1.1" id="Layer_1" xmlns="http://www.w3.org/2000/svg" xmlns:xlink="http://www.w3.org/1999/xlink" x="0px" y="0px"
	 viewBox="0 0 30 30" style="enable-background:new 0 0 30 30;" xml:space="preserve">
<style type="text/css">
	.st0{fill-rule:evenodd;clip-rule:evenodd;}
</style>
<path class="st0" d="M26.9,16.8l-1.7-4c0-0.1,0-0.1,0-0.2l-0.2-4.4c0-0.7-0.5-1.2-1.1-1.4l-4.2-1.1c-0.1,0-0.1,0-0.2-0.1L15.9,3
	c-0.5-0.4-1.2-0.4-1.8,0l-3.5,2.6c0,0-0.1,0.1-0.2,0.1L6.2,6.8C5.6,7,5.1,7.6,5.1,8.2l-0.2,4.4c0,0.1,0,0.1,0,0.2l-1.7,4
	c-0.3,0.6-0.1,1.3,0.4,1.7l3.3,2.9c0,0,0.1,0.1,0.1,0.1L9,25.4c0.3,0.6,1,0.9,1.6,0.8l4.3-0.8c0.1,0,0.1,0,0.2,0l4.3,0.8
	c0.6,0.1,1.3-0.2,1.6-0.8l2.1-3.9c0-0.1,0.1-0.1,0.1-0.1l3.3-2.9C27,18.1,27.1,17.4,26.9,16.8z M25.8,17.8l-3.3,2.9
	c-0.1,0.1-0.3,0.3-0.3,0.4l-2.1,3.9c-0.1,0.2-0.3,0.3-0.5,0.3l-4.3-0.8c-0.2,0-0.4,0-0.6,0l-4.3,0.8c-0.2,0-0.4-0.1-0.5-0.3
	l-2.1-3.9c-0.1-0.2-0.2-0.3-0.3-0.4l-3.3-2.9C4,17.6,4,17.4,4.1,17.2l1.7-4c0.1-0.2,0.1-0.4,0.1-0.5l0.2-4.4c0-0.2,0.2-0.4,0.4-0.5
	l4.2-1.1c0.2,0,0.3-0.1,0.5-0.2l3.5-2.6c0.2-0.1,0.4-0.1,0.6,0l3.5,2.6c0.1,0.1,0.3,0.2,0.5,0.2l4.2,1.1c0.2,0.1,0.4,0.2,0.4,0.5
	l0.2,4.4c0,0.2,0,0.4,0.1,0.5l1.7,4C26,17.4,26,17.6,25.8,17.8z"/>
<path d="M11.5,18.1c-0.2,0.2-0.2,0.5,0,0.6c0.1,0.1,0.2,0.1,0.3,0.1c0.1,0,0.2,0,0.3-0.1l6.6-6.8c0.2-0.2,0.2-0.5,0-0.6
	c-0.2-0.2-0.5-0.2-0.6,0L11.5,18.1z"/>
<path class="st0" d="M12.7,10.9c-1,0-1.8,0.8-1.8,1.8c0,1,0.8,1.8,1.8,1.8c1,0,1.8-0.8,1.8-1.8C14.6,11.7,13.7,10.9,12.7,10.9z
	 M12.7,13.7c-0.5,0-1-0.4-1-1c0-0.5,0.4-1,1-1c0.5,0,1,0.4,1,1C13.7,13.3,13.3,13.7,12.7,13.7z"/>
<path class="st0" d="M17.4,15.4c-1,0-1.8,0.8-1.8,1.8c0,1,0.8,1.8,1.8,1.8c1,0,1.8-0.8,1.8-1.8C19.2,16.3,18.4,15.4,17.4,15.4z
	 M17.4,18.2c-0.5,0-1-0.4-1-1c0-0.5,0.4-1,1-1c0.5,0,1,0.4,1,1C18.3,17.8,17.9,18.2,17.4,18.2z"/>
</svg>
