<?xml version="1.0" encoding="utf-8"?>
<!-- Generator: Adobe Illustrator 24.3.0, SVG Export Plug-In . SVG Version: 6.00 Build 0)  -->
<svg version="1.1" id="Layer_1" xmlns="http://www.w3.org/2000/svg" xmlns:xlink="http://www.w3.org/1999/xlink" x="0px" y="0px"
	 viewBox="0 0 30 30" style="enable-background:new 0 0 30 30;" xml:space="preserve">
<style type="text/css">
	.st0{fill-rule:evenodd;clip-rule:evenodd;}
</style>
<g>
	<path class="st0" d="M17.4,16.3c-0.5,0-1,0.4-1,1c0,0.5,0.4,1,1,1c0.5,0,1-0.4,1-1C18.3,16.7,17.9,16.3,17.4,16.3z"/>
	<path class="st0" d="M26.9,16.8l-1.7-4c0-0.1,0-0.1,0-0.2l-0.2-4.4c0-0.7-0.5-1.2-1.1-1.4l-4.2-1.1c-0.1,0-0.1,0-0.2-0.1L15.9,3
		c-0.5-0.4-1.2-0.4-1.8,0l-3.5,2.6c0,0-0.1,0.1-0.2,0.1L6.2,6.8C5.6,7,5.1,7.6,5.1,8.2l-0.2,4.4c0,0.1,0,0.1,0,0.2l-1.7,4
		c-0.3,0.6-0.1,1.3,0.4,1.7l3.3,2.9c0,0,0.1,0.1,0.1,0.1L9,25.4c0.3,0.6,1,0.9,1.6,0.8l4.3-0.8c0.1,0,0.1,0,0.2,0l4.3,0.8
		c0.6,0.1,1.3-0.2,1.6-0.8l2.1-3.9c0-0.1,0.1-0.1,0.1-0.1l3.3-2.9C27,18.1,27.1,17.4,26.9,16.8z M12.7,10.9c1,0,1.8,0.8,1.8,1.8
		c0,1-0.8,1.8-1.8,1.8c-1,0-1.8-0.8-1.8-1.8C10.9,11.7,11.7,10.9,12.7,10.9z M12.1,18.7c-0.1,0.1-0.2,0.1-0.3,0.1
		c-0.1,0-0.2,0-0.3-0.1c-0.2-0.2-0.2-0.4,0-0.6l6.6-6.8c0.2-0.2,0.4-0.2,0.6,0c0.2,0.2,0.2,0.4,0,0.6L12.1,18.7z M17.4,19.1
		c-1,0-1.8-0.8-1.8-1.8c0-1,0.8-1.8,1.8-1.8c1,0,1.8,0.8,1.8,1.8C19.2,18.3,18.4,19.1,17.4,19.1z"/>
	<path class="st0" d="M12.7,13.7c0.5,0,1-0.4,1-1c0-0.5-0.4-1-1-1c-0.5,0-1,0.4-1,1C11.8,13.3,12.2,13.7,12.7,13.7z"/>
</g>
</svg>
