<?xml version="1.0" encoding="utf-8"?>
<!-- Generator: Adobe Illustrator 24.3.0, SVG Export Plug-In . SVG Version: 6.00 Build 0)  -->
<svg version="1.1" id="Layer_1" xmlns="http://www.w3.org/2000/svg" xmlns:xlink="http://www.w3.org/1999/xlink" x="0px" y="0px"
	 viewBox="0 0 30 30" style="enable-background:new 0 0 30 30;" xml:space="preserve">
<style type="text/css">
	.st0{fill-rule:evenodd;clip-rule:evenodd;}
</style>
<path class="st0" d="M25.4,12.2c-0.1-0.2-0.2-0.4-0.3-0.5c-0.2-0.2-0.4-0.3-0.6-0.4L16.7,7c-0.5-0.3-0.8-0.5-1.2-0.5
	c-0.3-0.1-0.7-0.1-1,0c-0.4,0.1-0.7,0.3-1.2,0.5l-7.7,4.3c-0.2,0.1-0.5,0.3-0.6,0.4c-0.1,0.2-0.3,0.3-0.3,0.5
	c-0.1,0.2-0.1,0.5-0.1,0.8l0,9.3c0,0.5,0,1,0,1.3c0,0.4,0.1,0.7,0.2,1c0.2,0.5,0.6,0.9,1.1,1.1c0.3,0.2,0.6,0.2,1,0.2
	c0.4,0,0.8,0,1.3,0h13.6c0.5,0,1,0,1.3,0c0.4,0,0.7-0.1,1-0.2c0.5-0.2,0.9-0.6,1.1-1.1c0.2-0.3,0.2-0.6,0.2-1c0-0.4,0-0.8,0-1.3V13
	C25.5,12.7,25.5,12.4,25.4,12.2z M17.5,25h-5v-7.5c0-0.3,0.2-0.5,0.5-0.5h4c0.3,0,0.5,0.2,0.5,0.5V25z M24.5,22.3c0,0.6,0,1,0,1.3
	c0,0.3-0.1,0.5-0.1,0.6c-0.1,0.3-0.4,0.5-0.7,0.7c-0.1,0.1-0.3,0.1-0.6,0.1c-0.3,0-0.7,0-1.3,0h-3.3v-7.5c0-0.8-0.7-1.5-1.5-1.5h-4
	c-0.8,0-1.5,0.7-1.5,1.5V25H8.2c-0.6,0-1,0-1.3,0c-0.3,0-0.5-0.1-0.6-0.1c-0.3-0.1-0.5-0.4-0.7-0.7c-0.1-0.1-0.1-0.3-0.1-0.6
	c0-0.3,0-0.7,0-1.3V13c0-0.4,0-0.5,0-0.5c0-0.1,0.1-0.1,0.1-0.2c0,0,0.1-0.1,0.4-0.3l7.6-4.2c0.6-0.3,0.8-0.4,1-0.5
	c0.2,0,0.4,0,0.6,0c0.2,0,0.4,0.1,1,0.5l7.6,4.2c0.3,0.2,0.4,0.2,0.4,0.3c0,0.1,0.1,0.1,0.1,0.2c0,0.1,0,0.1,0,0.5V22.3z"/>
<path class="st0" d="M14.3,4.1c0.4-0.1,0.9-0.1,1.4,0c0.5,0.1,1,0.4,1.7,0.8c0,0,0,0,0.1,0l9.7,5.2c0.2,0.1,0.3,0.4,0.2,0.7
	c-0.1,0.2-0.4,0.3-0.7,0.2L17,5.7c-0.9-0.5-1.2-0.6-1.5-0.7c-0.3-0.1-0.7-0.1-1,0c-0.3,0.1-0.7,0.2-1.5,0.7l-9.7,5.2
	c-0.2,0.1-0.5,0-0.7-0.2c-0.1-0.2,0-0.5,0.2-0.7l9.7-5.2c0,0,0,0,0.1,0C13.3,4.4,13.8,4.2,14.3,4.1z"/>
</svg>
