<svg width="30" height="30" viewBox="0 0 30 30" fill="none" xmlns="http://www.w3.org/2000/svg">
<path d="M12 13V24H13V13H12Z" fill="black"/>
<path d="M7 18.8654V24H8V18.8654H7Z" fill="black"/>
<path d="M17 24V16H18V24H17Z" fill="black"/>
<path d="M22 13V24H23V13H22Z" fill="black"/>
<path d="M23.861 6.16819C24.0485 6.35569 24.0485 6.66819 23.8298 6.85569L17.3298 11.8557C17.1423 12.0432 16.8298 12.0432 16.6423 11.8557L12.9548 8.13694L6.79852 11.8869C6.57977 12.0744 6.26727 12.0119 6.11102 11.7932C5.92352 11.5744 5.98602 11.2619 6.20477 11.1057L12.7048 7.10569C12.8923 6.94944 13.1735 6.98069 13.361 7.13694L17.0173 10.7932L23.1735 6.13694C23.361 5.94944 23.6735 5.94944 23.861 6.16819Z" fill="black"/>
</svg>
