<?xml version="1.0" encoding="utf-8"?>
<!-- Generator: Adobe Illustrator 24.3.0, SVG Export Plug-In . SVG Version: 6.00 Build 0)  -->
<svg version="1.1" id="Layer_1" xmlns="http://www.w3.org/2000/svg" xmlns:xlink="http://www.w3.org/1999/xlink" x="0px" y="0px"
	 viewBox="0 0 30 30" style="enable-background:new 0 0 30 30;" xml:space="preserve">
<style type="text/css">
	.st0{fill-rule:evenodd;clip-rule:evenodd;}
</style>
<path class="st0" d="M24,3H6C4.3,3,3,4.3,3,6v18c0,1.7,1.3,3,3,3h18c1.7,0,3-1.3,3-3V6C27,4.3,25.7,3,24,3z M8,24H7v-5.1h1V24z
	 M13,24h-1V13h1V24z M18,24h-1v-8h1V24z M23,24h-1V13h1V24z M23.8,6.9l-6.5,5c-0.2,0.2-0.5,0.2-0.7,0L13,8.1l-6.2,3.7
	c-0.2,0.2-0.5,0.1-0.7-0.1c-0.2-0.2-0.1-0.5,0.1-0.7l6.5-4c0.2-0.2,0.5-0.1,0.7,0l3.7,3.7l6.2-4.7c0.2-0.2,0.5-0.2,0.7,0
	C24,6.4,24,6.7,23.8,6.9z"/>
</svg>
