<?xml version="1.0" encoding="utf-8"?>
<!-- Generator: Adobe Illustrator 24.3.0, SVG Export Plug-In . SVG Version: 6.00 Build 0)  -->
<svg version="1.1" id="Layer_1" xmlns="http://www.w3.org/2000/svg" xmlns:xlink="http://www.w3.org/1999/xlink" x="0px" y="0px"
	 viewBox="0 0 18 26" style="enable-background:new 0 0 18 26;" xml:space="preserve">
<style type="text/css">
	.st0{fill-rule:evenodd;clip-rule:evenodd;}
</style>
<path class="st0" d="M3,17.3v7.5c0,0.8,1,1.3,1.6,0.8l3.7-3.1c0.4-0.3,0.9-0.3,1.3,0l3.7,3.1c0.7,0.5,1.6,0.1,1.6-0.8v-7.5l-4.6,2.5
	c-0.9,0.5-2,0.5-2.9,0L3,17.3z"/>
<path d="M8,0.2c0.6-0.3,1.3-0.3,1.9,0l7,3.9c0.6,0.3,1,1,1,1.7v7.5c0,0.7-0.4,1.4-1,1.7L10,19c-0.6,0.3-1.3,0.3-1.9,0l-7-3.9
	c-0.6-0.3-1-1-1-1.7V5.8c0-0.7,0.4-1.4,1-1.7L8,0.2z"/>
</svg>
