<?xml version="1.0" encoding="utf-8"?>
<!-- Generator: Adobe Illustrator 24.3.0, SVG Export Plug-In . SVG Version: 6.00 Build 0)  -->
<svg version="1.1" id="Layer_1" xmlns="http://www.w3.org/2000/svg" xmlns:xlink="http://www.w3.org/1999/xlink" x="0px" y="0px"
	 viewBox="0 0 30 30" style="enable-background:new 0 0 30 30;" xml:space="preserve">
<style type="text/css">
	.st0{fill-rule:evenodd;clip-rule:evenodd;}
</style>
<path d="M9,18.2v8.6c0,0.8,1,1.3,1.6,0.8l3.7-3.1c0.4-0.3,0.9-0.3,1.3,0l3.7,3.1c0.7,0.5,1.6,0.1,1.6-0.8v-8.6l-1,0.5v8.1l-3.7-3.1
	c-0.7-0.6-1.8-0.6-2.6,0L10,26.8v-8.1L9,18.2z"/>
<path class="st0" d="M23,6.1l-7-3.9c-0.6-0.3-1.3-0.3-1.9,0L7,6.1c-0.6,0.3-1,1-1,1.7v7.5c0,0.7,0.4,1.4,1,1.7l7,3.9
	c0.6,0.3,1.3,0.3,1.9,0l7-3.9c0.6-0.3,1-1,1-1.7V7.8C24,7.1,23.6,6.4,23,6.1z M23,15.4c0,0.4-0.2,0.7-0.5,0.9l-7,3.9
	c-0.3,0.2-0.7,0.2-0.9,0l-7-3.9C7.2,16.1,7,15.7,7,15.4V7.8C7,7.5,7.2,7.1,7.5,7l7-3.9c0.3-0.2,0.7-0.2,0.9,0l7,3.9
	C22.8,7.1,23,7.5,23,7.8V15.4z"/>
</svg>
