<?xml version="1.0" encoding="utf-8"?>
<!-- Generator: Adobe Illustrator 24.3.0, SVG Export Plug-In . SVG Version: 6.00 Build 0)  -->
<svg version="1.1" id="Layer_1" xmlns="http://www.w3.org/2000/svg" xmlns:xlink="http://www.w3.org/1999/xlink" x="0px" y="0px"
	 viewBox="0 0 30 30" style="enable-background:new 0 0 30 30;" xml:space="preserve">
<style type="text/css">
	.st0{fill-rule:evenodd;clip-rule:evenodd;}
</style>
<path class="st0" d="M24,9h-2.8C21.7,8.5,22,7.8,22,7c0-1.6-1.3-3-2.9-3H19c-1.1,0-2.1,0.6-2.6,1.5L15,7.9l-1.4-2.4
	C13,4.6,12.1,4,11,4h-0.1C9.2,4,8,5.4,8,7c0,0.8,0.3,1.5,0.7,2H6c-1.1,0-2,0.9-2,2v2c0,0.7,0.4,1.4,1,1.7V23c0,1.7,1.3,3,3,3h14
	c1.7,0,3-1.3,3-3v-8.3c0.6-0.3,1-1,1-1.7v-2C26,9.9,25.1,9,24,9z M10.9,5L10.9,5c0.8,0,1.4,0.4,1.8,1l1.8,3h-3.6C9.9,9,9,8.1,9,7
	C9,5.9,9.9,5,10.9,5z M14.5,25H8c-1.1,0-2-0.9-2-2v-8h8.5V25z M14.5,14H6c-0.6,0-1-0.4-1-1v-2c0-0.6,0.4-1,1-1h8.5V14z M17.3,6
	c0.3-0.6,1-1,1.7-1h0.1c1,0,1.9,0.9,1.9,2c0,1.1-0.9,2-1.9,2h-3.6L17.3,6z M24,23c0,1.1-0.9,2-2,2h-6.5V15H24V23z M25,13
	c0,0.6-0.4,1-1,1h-8.5v-4H24c0.6,0,1,0.4,1,1V13z"/>
</svg>
