<?xml version="1.0"?>
<svg xmlns="http://www.w3.org/2000/svg" viewBox="0 0 50 50">
    <path style="text-indent:0;text-align:start;line-height:normal;text-transform:none;block-progression:tb;-inkscape-font-specification:Sans" d="M 25 2 C 12.309296 2 2 12.309296 2 25 C 2 37.690704 12.309296 48 25 48 C 37.690704 48 48 37.690704 48 25 C 48 12.309296 37.690704 2 25 2 z M 25 4 C 36.609824 4 46 13.390176 46 25 C 46 36.609824 36.609824 46 25 46 C 13.390176 46 4 36.609824 4 25 C 4 13.390176 13.390176 4 25 4 z M 13 21 C 10.802706 21 9 22.802706 9 25 C 9 27.197294 10.802706 29 13 29 C 15.197294 29 17 27.197294 17 25 C 17 22.802706 15.197294 21 13 21 z M 25 21 C 22.802706 21 21 22.802706 21 25 C 21 27.197294 22.802706 29 25 29 C 27.197294 29 29 27.197294 29 25 C 29 22.802706 27.197294 21 25 21 z M 37 21 C 34.802706 21 33 22.802706 33 25 C 33 27.197294 34.802706 29 37 29 C 39.197294 29 41 27.197294 41 25 C 41 22.802706 39.197294 21 37 21 z M 13 23 C 14.116414 23 15 23.883586 15 25 C 15 26.116414 14.116414 27 13 27 C 11.883586 27 11 26.116414 11 25 C 11 23.883586 11.883586 23 13 23 z M 25 23 C 26.116414 23 27 23.883586 27 25 C 27 26.116414 26.116414 27 25 27 C 23.883586 27 23 26.116414 23 25 C 23 23.883586 23.883586 23 25 23 z M 37 23 C 38.116414 23 39 23.883586 39 25 C 39 26.116414 38.116414 27 37 27 C 35.883586 27 35 26.116414 35 25 C 35 23.883586 35.883586 23 37 23 z" overflow="visible" font-family="Sans"/>
</svg>
