<?xml version="1.0" encoding="utf-8"?>
<!-- Generator: Adobe Illustrator 24.3.0, SVG Export Plug-In . SVG Version: 6.00 Build 0)  -->
<svg version="1.1" id="Layer_1" xmlns="http://www.w3.org/2000/svg" xmlns:xlink="http://www.w3.org/1999/xlink" x="0px" y="0px"
	 viewBox="0 0 30 30" style="enable-background:new 0 0 30 30;" xml:space="preserve">
<style type="text/css">
	.st0{fill-rule:evenodd;clip-rule:evenodd;}
</style>
<path class="st0" d="M15,5C9.5,5,5,9.5,5,15s4.5,10,10,10s10-4.5,10-10S20.5,5,15,5z M15.5,6c3.4,0.2,6.2,2.2,7.6,5.1l-7.6,3.1V6z
	 M15,24c-5,0-9-4-9-9c0-4.8,3.8-8.7,8.5-9v9.2l6.5,6.5C19.4,23.1,17.3,24,15,24z M21.7,21l-5.8-5.8l7.6-3.1C23.8,13,24,14,24,15
	C24,17.3,23.1,19.4,21.7,21z"/>
</svg>
