<svg width="30" height="30" viewBox="0 0 30 30" fill="none" xmlns="http://www.w3.org/2000/svg">
<path fill-rule="evenodd" clip-rule="evenodd" d="M24 24C25.1046 24 26 23.1046 26 22V19H22C19.7909 19 18 17.2091 18 15C18 12.7909 19.7909 11 22 11H26V8C26 6.89543 25.1046 6 24 6H6C4.89543 6 4 6.89543 4 8V22C4 23.1046 4.89543 24 6 24H24ZM3 8C3 6.34315 4.34315 5 6 5H24C25.6569 5 27 6.34315 27 8V22C27 23.6569 25.6569 25 24 25H6C4.34315 25 3 23.6569 3 22V8ZM19 15C19 16.6569 20.3431 18 22 18H26V12H22C20.3431 12 19 13.3431 19 15ZM23 15C23 15.5523 22.5523 16 22 16C21.4477 16 21 15.5523 21 15C21 14.4477 21.4477 14 22 14C22.5523 14 23 14.4477 23 15Z" fill="black"/>
</svg>
