<svg width="30" height="30" viewBox="0 0 30 30" fill="none" xmlns="http://www.w3.org/2000/svg">
<path fill-rule="evenodd" clip-rule="evenodd" d="M3 8C3 6.34315 4.34315 5 6 5H24C25.6569 5 27 6.34315 27 8V11H22C19.7909 11 18 12.7909 18 15C18 17.2091 19.7909 19 22 19H27V22C27 23.6569 25.6569 25 24 25H6C4.34315 25 3 23.6569 3 22V8ZM27 18V12H22C20.3431 12 19 13.3431 19 15C19 16.6569 20.3431 18 22 18H27ZM23 15C23 15.5523 22.5523 16 22 16C21.4477 16 21 15.5523 21 15C21 14.4477 21.4477 14 22 14C22.5523 14 23 14.4477 23 15Z" fill="black"/>
</svg>
