<?xml version="1.0" encoding="utf-8"?>
<!-- Generator: Adobe Illustrator 24.3.0, SVG Export Plug-In . SVG Version: 6.00 Build 0)  -->
<svg version="1.1" id="Layer_1" xmlns="http://www.w3.org/2000/svg" xmlns:xlink="http://www.w3.org/1999/xlink" x="0px" y="0px"
	 viewBox="0 0 30 30" style="enable-background:new 0 0 30 30;" xml:space="preserve">
<style type="text/css">
	.st0{fill-rule:evenodd;clip-rule:evenodd;}
</style>
<path class="st0" d="M27.3,11.7c-0.1-0.1-0.2-0.2-0.4-0.2c-2.5,0-4.7,0.7-6.7,2c-0.3-3.1-2.2-5.8-5-7.5c-0.2-0.1-0.4-0.1-0.5,0
	c-2.8,1.7-4.8,4.4-5,7.5c-1.9-1.2-4.2-2-6.7-2c-0.1,0-0.3,0.1-0.4,0.2c-0.1,0.1-0.1,0.2-0.1,0.4C3.1,18.4,8.4,23.5,15,23.5
	c0,0,0,0,0,0c0,0,0,0,0,0c6.5,0,11.9-5.1,12.4-11.5C27.5,11.9,27.4,11.8,27.3,11.7z M3.6,12.5c5.6,0.3,10.1,4.5,10.8,10
	C8.8,22.2,4.3,18,3.6,12.5z M15,20.5c-0.7-2.5-2.3-4.7-4.3-6.3c0-2.9,1.7-5.5,4.3-7.2c2.6,1.7,4.3,4.3,4.3,7.2
	C17.3,15.7,15.7,17.9,15,20.5z M15.6,22.5c0.7-5.4,5.2-9.7,10.8-10C25.7,18,21.2,22.2,15.6,22.5z"/>
</svg>
