<svg width="30" height="30" viewBox="0 0 30 30" fill="none" xmlns="http://www.w3.org/2000/svg">
<path fill-rule="evenodd" clip-rule="evenodd" d="M14.9572 23.4999C8.42361 23.478 3.07102 18.4439 2.54277 12.0412C2.53126 11.9016 2.57881 11.7636 2.67385 11.6607C2.76889 11.5579 2.90271 11.4996 3.04276 11.5001C8.70865 11.5191 13.4864 15.3073 15 20.4887C16.5136 15.3073 21.2914 11.5191 26.9572 11.5001C27.0973 11.4996 27.2311 11.5579 27.3262 11.6607C27.4212 11.7636 27.4687 11.9016 27.4572 12.0412C26.929 18.4439 21.5764 23.478 15.0428 23.4999C15.0284 23.5 15.0142 23.4994 15 23.4982C14.9858 23.4994 14.9716 23.5 14.9572 23.4999Z" fill="black"/>
<path d="M15.2701 5.9218C15.1089 5.82195 14.905 5.82195 14.7437 5.9218C12.2551 7.46263 10.4582 9.74463 9.89368 12.3903C12.0619 13.6806 13.8377 15.5611 15 17.81C16.1645 15.5569 17.9448 13.6735 20.1186 12.383C19.5523 9.74042 17.7565 7.46121 15.2701 5.9218Z" fill="black"/>
</svg>
